Coordinates
version=1
nRows=9
nColumns=24
inDegrees=yes

Units are S.I. units (second, meters, Newtons, ...)
If the header above contains a line with 'inDegrees', this indicates whether rotational values are in degrees (yes) or radians (no).

endheader
time	pelvis_tilt	pelvis_list	pelvis_rotation	pelvis_tx	pelvis_ty	pelvis_tz	hip_flexion_r	hip_adduction_r	hip_rotation_r	knee_angle_r	ankle_angle_r	subtalar_angle_r	mtp_angle_r	hip_flexion_l	hip_adduction_l	hip_rotation_l	knee_angle_l	ankle_angle_l	subtalar_angle_l	mtp_angle_l	lumbar_extension	lumbar_bending	lumbar_rotation
      1.25000000	      4.58104570	     -4.30699201	     -4.37031450	      0.57916864	      1.01374226	      0.04531256	    -21.08064159	      4.46549886	      3.04547792	     -8.64154846	     14.03013064	      0.00000050	      0.00000000	     19.10030178	     -5.46839922	     -4.46378645	     -3.46180501	     -0.79331617	     -0.00000119	      0.00000000	    -16.94842511	      2.31314215	      4.51657189
      1.26700000	      4.43265393	     -4.03954344	     -4.41915467	      0.58130041	      1.01239051	      0.04343955	    -21.25863525	      3.98200800	      3.16360348	    -10.45183065	     14.25429354	      0.00000087	      0.00000000	     19.66214360	     -4.99217942	     -3.98455454	     -6.04089344	     -1.55868471	     -0.00000150	      0.00000000	    -16.47841778	      1.75234616	      4.33157949
      1.28300000	      4.21539035	     -4.15501113	     -4.62552500	      0.58223581	      1.01141155	      0.04207635	    -20.89493932	      3.88791541	      3.46573616	    -13.07764685	     14.28252847	      0.00000139	      0.00000000	     20.22851040	     -5.01794038	     -3.73317723	     -8.61290235	     -2.67208352	     -0.00000177	      0.00000000	    -16.25030150	      1.45513192	      4.26997533
      1.30000000	      4.11535245	     -3.98791332	     -4.86096786	      0.58472530	      1.01121056	      0.04049258	    -20.69502977	      3.45208103	      3.63043235	    -15.63523263	     13.79697903	      0.00000187	      0.00000000	     20.55539613	     -4.78273498	     -3.73932050	    -11.24664665	     -3.52853000	     -0.00000195	      0.00000000	    -15.89675213	      0.76412160	      4.16219881
      1.31700000	      4.23586043	     -3.69157412	     -5.04934332	      0.58775873	      1.01184517	      0.03865526	    -20.19563553	      2.89228346	      3.64724223	    -19.15560285	     12.98104346	      0.00000253	      0.00000000	     20.48857016	     -4.40333034	     -3.91278230	    -13.70050238	     -4.03644593	     -0.00000196	      0.00000000	    -15.69845949	     -0.01212508	      3.87290848
      1.33300000	      4.42111208	     -3.42826202	     -5.09020210	      0.59091159	      1.01297715	      0.03659439	    -19.23405671	      2.40362998	      3.32026212	    -23.53095819	     11.59360056	      0.00000325	      0.00000000	     20.19638747	     -4.01420511	     -3.96919386	    -15.92677055	     -4.11579967	     -0.00000212	      0.00000000	    -15.52995058	     -0.70272218	      3.62986122
      1.35000000	      4.86451780	     -3.05174907	     -4.99661206	      0.59424526	      1.01489828	      0.03398261	    -18.00279124	      1.72029948	      2.44396522	    -28.63217305	      9.32041539	      0.00000400	      0.00000000	     19.36992759	     -3.42717602	     -3.99935482	    -17.72802429	     -3.84738523	     -0.00000236	      0.00000000	    -15.58857429	     -1.42995509	      3.25350252
      1.36700000	      5.16359805	     -2.61010675	     -4.77064357	      0.59728641	      1.01677459	      0.03064189	    -16.00901110	      0.82819177	      0.99276886	    -34.43732100	      6.01527245	      0.00000458	      0.00000000	     18.46081577	     -2.71198774	     -3.98898524	    -19.06193773	     -3.31820264	     -0.00000229	      0.00000000	    -15.55681971	     -2.11392527	      2.71700818
      1.38300000	      5.31270873	     -2.06722348	     -4.61772778	      0.59965944	      1.01850700	      0.02698622	    -13.31936604	     -0.46097431	     -0.79257563	    -40.62660106	      1.81931533	      0.00000467	      0.00000000	     17.47650709	     -1.89372185	     -4.09030351	    -19.92327017	     -2.57042420	     -0.00000220	      0.00000000	    -15.48242158	     -2.80463134	      2.33694994
